<svg id="Layer_1" data-name="Layer 1" xmlns="http://www.w3.org/2000/svg" viewBox="0 0 436.82 342.99"><defs><style>.cls-1,.cls-3,.cls-4{fill:#fff;}.cls-2{fill:#fefefe;}.cls-3{isolation:isolate;font-size:28px;}.cls-3,.cls-4{font-family:RubikOne-Regular, Rubik One;}.cls-4{font-size:27px;}</style></defs><title>vetorizada1</title><path class="cls-1" d="M256.23,283c.9-3.7,3.7-6.4,4.7-10.2,1.5-6,.4-11.7-.6-17.3a354.92,354.92,0,0,1-3.7-35.6,49.17,49.17,0,0,1,1.2-14.3c.9-3.8.9-7.5,1.3-11.3,2.9,4.3.6,8.7,0,12.9-1.7,11.8-.5,23.4.7,35.1.9,8,2.4,16,2.7,24.1a26,26,0,0,1-6.1,17.9.65.65,0,0,1-.5-.9A1.38,1.38,0,0,1,256.23,283Z" transform="translate(-10.18 -0.29)"/><path class="cls-1" d="M201.33,72.34c-.9-2.7.2-5.2,1.1-7.7.8-2.1.2-3.1-2-3.4-17.4-2.7-34.8-6.1-52.2,0,2.9-3.6,7.1-4,11.1-4.2a155,155,0,0,1,41.9,3c2.5.5,4,1.4,2.8,4.4C203,66.94,202.23,69.64,201.33,72.34Z" transform="translate(-10.18 -0.29)"/><path class="cls-1" d="M232.13,343a13.42,13.42,0,0,0,5.2-5.1c.6-1,1-2.4,1.9-2.8,7.7-3.9,6.3-11,6.4-17.6,0-2.9-.4-6,1.7-8.5,0,4.6.4,9.3,0,13.9s-.7,9.5-5.9,12.3c-1.8,1-3,3.5-4,5.5C236.13,342.84,234.53,343.74,232.13,343Z" transform="translate(-10.18 -0.29)"/><path class="cls-1" d="M145.53,168a194.39,194.39,0,0,1,26.8,25.3c-6.5-4-11.5-9.8-17-14.9C151.83,175.24,148,172.24,145.53,168Z" transform="translate(-10.18 -0.29)"/><path class="cls-1" d="M25.43,307.24a29,29,0,0,1,1.8,11.7c-.1,4.5-.3,8.9,1.5,13.2-3.3-2.5-3-6.3-3.1-9.8-.1-5.1-.1-10.1-1.1-15.1Q25,306.49,25.43,307.24Z" transform="translate(-10.18 -0.29)"/><path class="cls-1" d="M13.43,244.24c1.3,5.2-.7,10.2-1.5,15.2a47,47,0,0,0,.7,16.7c-.3.6-.7.6-1.1.1C8.43,265.24,11.33,254.74,13.43,244.24Z" transform="translate(-10.18 -0.29)"/><path class="cls-1" d="M25.43,307.24h-.9c-2-7.9-5.3-15.3-8.3-22.7a1.09,1.09,0,0,1,.3-1.3A78,78,0,0,1,25.43,307.24Z" transform="translate(-10.18 -0.29)"/><path class="cls-1" d="M256.23,283c.1.4.2.9.3,1.3-2.2,4.5-3.4,9.6-6.3,13.8A34.82,34.82,0,0,1,256.23,283Z" transform="translate(-10.18 -0.29)"/><path class="cls-1" d="M16.53,283.14c-.1.4-.2.8-.3,1.3a25.15,25.15,0,0,1-4.6-8.3l1.1-.1C13.73,278.54,16.13,280.34,16.53,283.14Z" transform="translate(-10.18 -0.29)"/><path class="cls-1" d="M49.43,141.14a15.33,15.33,0,0,1-3.9,7.2A11.2,11.2,0,0,1,49.43,141.14Z" transform="translate(-10.18 -0.29)"/><path class="cls-2" d="M13.43,244.24c2-14.3,3-28.6.3-43-1.5-7.8,1.7-14.5,7-19.9,9.7-9.7,16.4-21.6,23.8-33,1.5-2.8,3.3-5.4,4.9-8.1,8.6-14.1,17.9-27.9,22-44.3A50.35,50.35,0,0,0,70,67.44c-2.1-6.4-2.1-6,4.4-7.5,12-2.8,24-3,36.2-2.9a32.41,32.41,0,0,1,9.3,1.6c4.9,1.6,7.9,4.9,8.6,9.9,1.1,7.7,2.5,15.4,2.9,23.2,1.2,20.9,1.7,41.8.3,62.8-.4,6.5-2.5,11.5-7.5,16-10.4,9.3-20.3,19.2-30.4,28.8q-20.25,19.2-40.6,38.4a11.17,11.17,0,0,0-3.8,8.7c.1,29,0,58,.1,86.9,0,4.5-.9,7.8-5.7,9.1-4.5,1.3-6.9-1.5-8.8-4.7-1.6-2.7-3.3-5-6.4-5.8-2.2-3.3-2.2-7.1-2.2-10.9-.1-4.4.3-8.9-1.5-13.2-1.4-8.8-5-16.7-8.8-24.6-1.6-2.7-3.4-5.3-4.3-8.4-2.1-7.4-.6-14.8.5-22C12.93,250,12.33,247,13.43,244.24Z" transform="translate(-10.18 -0.29)"/><path class="cls-2" d="M250.23,298.14a24,24,0,0,0-3,10.8c-1.7,5.7-.2,11.6-1.4,17.3-.2.8.3,1.9-.2,2.4-4.4,4.9-7.5,11-13.6,14.3-7.7-.9-9.1-2.5-9.1-10.1v-86.4c0-3.2-.6-5.8-3-8.1q-23.85-22.5-47.7-45.3c-8.8-8.5-18-16.6-26.8-25.3-3.3-3.2-4.4-7.3-4.6-11.6-1.3-24.2-1.5-48.3,1.1-72.4.5-4.8,1-9.5,1.9-14.3.6-3.3,1.1-6.6,4.4-8.5,6.6-4.7,14.3-3.5,21.6-3.6a180,180,0,0,1,20.8,1.1c3.9.4,7.2,2.3,11.1,2.4,1.5,0,1.9,1.5,1.4,3.1-1,2.6-1.1,5.5-1.8,8.2a54.75,54.75,0,0,0,4.1,36.5c2,4.3,4.5,8.4,6.7,12.6,1.7,3.3,3.5,6.6,5.4,9.8,4.1,6.8,8.4,13.6,12.5,20.4,5,8.6,10.2,17.1,16.7,24.5,4.9,5.6,10,11,12.3,18.3a11.36,11.36,0,0,1,.4,7.7c-3.4,13.5-1.9,27-.3,40.4,1,9.2,2.9,18.3,2.6,27.6-.1,4.8-2.5,8.5-4.9,12.3A109,109,0,0,0,250.23,298.14Z" transform="translate(-10.18 -0.29)"/><text class="cls-3" transform="translate(267.04 239.06)">CUIDA EM</text><rect class="cls-1" x="101.26" y="249.06" width="22.7" height="22.7"/><rect class="cls-1" x="128.86" y="249.16" width="22.7" height="22.7"/><rect class="cls-1" x="101.26" y="221.16" width="22.7" height="22.7"/><rect class="cls-1" x="128.86" y="220.96" width="22.7" height="22.7"/><text class="cls-4" transform="translate(306.82 273.28)">CASA</text><text x="-10.18" y="-0.29"/></svg>